<svg width="307" height="197" viewBox="0 0 307 197" fill="none" xmlns="http://www.w3.org/2000/svg">
<path fill-rule="evenodd" clip-rule="evenodd" d="M212 110.001C230 62.0006 269 90.0006 294 17.0006C303 -10.9994 301 28.0006 297 35.0006C316 20.0006 302 49.0006 300 56.0006C309 65.0006 300 71.0006 294 83.0006C304 94.0006 296 95.0006 284 108.001C290 118.001 284 116.001 272 121.001C282 143.001 237 132.001 229 130.001C237 156.001 256 175.001 286 189.001C282 190.001 277 190.001 272 191.001C267 199.001 268 197.001 260 190.001C255 201.001 252 192.001 243 184.001C231 193.001 224 164.001 217 151.001C216 154.001 217 158.001 218 161.001C156 140.001 204 86.0006 162 98.0006C163 96.0006 164 94.0006 166 92.0006C167 74.0006 190 60.0006 212 110.001Z" fill="#0F172A"/>
<path fill-rule="evenodd" clip-rule="evenodd" d="M250 11.0004C251 -17.9996 259 19.0004 257 27.0004C272 8.00045 267 39.0004 266 47.0004C276 48.0004 270 54.0004 264 60.0004C255 67.0004 246 71.0005 236 77.0005C224 84.0005 217 92.0005 212 103C201 82.0005 247 72.0004 250 11.0004Z" fill="#0F172A"/>
<path fill-rule="evenodd" clip-rule="evenodd" d="M95.0002 110.001C77.0002 62.0006 38.0002 90.0006 13.0002 17.0006C4.00024 -10.9994 6.00024 28.0006 11.0002 35.0006C-8.99976 20.0006 5.00024 49.0006 7.00024 56.0006C-1.99976 65.0006 7.00024 71.0006 13.0002 83.0006C3.00024 94.0006 11.0002 95.0006 23.0002 108.001C17.0002 118.001 23.0002 116.001 35.0002 121.001C25.0002 143.001 70.0002 132.001 78.0002 130.001C70.0002 156.001 51.0002 175.001 21.0002 189.001C25.0002 190.001 30.0002 190.001 35.0002 191.001C40.0002 199.001 39.0002 197.001 47.0002 190.001C52.0002 201.001 55.0002 192.001 64.0002 184.001C76.0002 193.001 83.0002 164.001 90.0002 151.001C91.0002 154.001 90.0002 158.001 89.0002 161.001C151 140.001 103 86.0006 145 98.0006C144 96.0006 143 94.0006 141 92.0006C140 74.0006 117 60.0006 95.0002 110.001Z" fill="#0F172A"/>
<path fill-rule="evenodd" clip-rule="evenodd" d="M57.0008 11.0004C56.0008 -17.9996 48.0008 19.0004 50.0008 27.0004C35.0008 8.00045 40.0008 39.0004 41.0008 47.0004C31.0008 48.0004 37.0008 54.0004 43.0008 60.0004C52.0008 67.0004 61.0008 71.0005 71.0008 77.0005C83.0008 84.0005 90.0008 92.0005 95.0008 103C106.001 82.0005 60.0008 72.0004 57.0008 11.0004Z" fill="#0F172A"/>
</svg>
